<svg width="32" height="33" viewBox="0 0 32 33" fill="none" xmlns="http://www.w3.org/2000/svg">
<g id="Frame">
<path id="Vector" d="M16 3.5C13.4288 3.5 10.9154 4.26244 8.77759 5.6909C6.63975 7.11935 4.97351 9.14968 3.98957 11.5251C3.00563 13.9006 2.74819 16.5144 3.2498 19.0362C3.75141 21.5579 4.98953 23.8743 6.80762 25.6924C8.6257 27.5105 10.9421 28.7486 13.4638 29.2502C15.9856 29.7518 18.5995 29.4944 20.9749 28.5104C23.3503 27.5265 25.3807 25.8603 26.8091 23.7224C28.2376 21.5846 29 19.0712 29 16.5C28.9964 13.0533 27.6256 9.74882 25.1884 7.31163C22.7512 4.87445 19.4467 3.50364 16 3.5ZM9.26001 25.1875C9.98342 24.0561 10.98 23.125 12.1579 22.4801C13.3358 21.8351 14.6571 21.4971 16 21.4971C17.3429 21.4971 18.6642 21.8351 19.8421 22.4801C21.02 23.125 22.0166 24.0561 22.74 25.1875C20.8129 26.6862 18.4413 27.4999 16 27.4999C13.5587 27.4999 11.1871 26.6862 9.26001 25.1875ZM12 15.5C12 14.7089 12.2346 13.9355 12.6741 13.2777C13.1137 12.6199 13.7384 12.1072 14.4693 11.8045C15.2002 11.5017 16.0044 11.4225 16.7804 11.5769C17.5563 11.7312 18.269 12.1122 18.8284 12.6716C19.3878 13.231 19.7688 13.9437 19.9231 14.7196C20.0775 15.4956 19.9983 16.2998 19.6955 17.0307C19.3928 17.7616 18.8801 18.3864 18.2223 18.8259C17.5645 19.2654 16.7911 19.5 16 19.5C14.9391 19.5 13.9217 19.0786 13.1716 18.3284C12.4214 17.5783 12 16.5609 12 15.5ZM24.22 23.8013C23.1047 22.1851 21.5365 20.9348 19.7125 20.2075C20.6923 19.4358 21.4072 18.378 21.7579 17.1811C22.1086 15.9843 22.0776 14.7079 21.6693 13.5294C21.2609 12.351 20.4955 11.3291 19.4794 10.6059C18.4634 9.88262 17.2472 9.49397 16 9.49397C14.7528 9.49397 13.5366 9.88262 12.5206 10.6059C11.5045 11.3291 10.7391 12.351 10.3307 13.5294C9.92238 14.7079 9.8914 15.9843 10.2421 17.1811C10.5928 18.378 11.3077 19.4358 12.2875 20.2075C10.4635 20.9348 8.89529 22.1851 7.78001 23.8013C6.37072 22.2165 5.4496 20.2581 5.12756 18.1619C4.80553 16.0657 5.09631 13.9211 5.9649 11.9864C6.83349 10.0516 8.24285 8.40922 10.0233 7.25692C11.8037 6.10462 13.8792 5.49156 16 5.49156C18.1208 5.49156 20.1963 6.10462 21.9768 7.25692C23.7572 8.40922 25.1665 10.0516 26.0351 11.9864C26.9037 13.9211 27.1945 16.0657 26.8724 18.1619C26.5504 20.2581 25.6293 22.2165 24.22 23.8013Z" fill="#F6F6F6"/>
</g>
</svg>
